<svg width="44" height="72" viewBox="0 0 44 72" fill="none" xmlns="http://www.w3.org/2000/svg">
<path d="M36.105 30.1917L36.0791 30.1661C35.9541 30.0715 35.8268 29.982 35.6994 29.8977C35.5697 29.8108 35.4377 29.7289 35.3056 29.6548C35.1759 29.5807 35.0462 29.5117 34.9189 29.4477H34.8977C34.6359 29.3174 34.3789 29.2049 34.1289 29.1077H34.1148C33.4291 28.8382 32.7169 28.6555 31.9925 28.5632L16.1931 27.0012C14.0449 28.3408 9.48432 31.4801 10.4818 33.3923C10.4818 33.3923 4.18328 32.2189 13.5285 26.7456C14.1746 26.3519 14.882 25.9445 15.6508 25.5236H15.6649C16.4981 25.0685 17.4044 24.6016 18.3838 24.1227L18.9215 23.867C19.1762 23.7443 19.4379 23.6114 19.7044 23.4963L19.9968 23.3583C20.3851 23.1776 20.7836 22.9953 21.1923 22.8112C22.1906 22.3613 23.2463 21.9028 24.3593 21.4358L25.0667 21.1444C39.1446 15.2978 35.1359 6.31442 35.1359 6.31442C25.2955 11.7597 11.4298 17.1538 11.4298 17.1538C7.32193 19.1222 3.96634 20.9475 3.48057 25.5645C3.11506 28.9978 4.39787 30.9765 5.94951 32.1167H5.96837L6.13816 32.2368L6.18296 32.2675L6.33388 32.3646L6.38104 32.3953L6.54375 32.4925L6.57441 32.5129C6.70882 32.5896 6.84088 32.6612 6.97293 32.7277H7.00123L7.16865 32.8095L7.21346 32.8299L7.36909 32.9015L7.40918 32.9194L7.58604 32.9935H7.60255C7.7346 33.0472 7.8643 33.0958 7.99399 33.1393H8.01522L8.18264 33.1955H8.21094L8.37601 33.2466H8.39251C9.38528 33.5406 13.1842 34.0136 15.0825 34.2181C17.8391 34.5402 21.3598 34.9339 24.5574 35.2867C26.0076 34.6552 32.6693 31.5952 31.7543 29.2611C31.7543 29.2611 38.0222 31.2449 27.6984 35.6318H27.7125C27.3352 35.8235 16.9407 40.0723 16.6742 40.1644C2.31802 45.1392 5.86698 54.3424 5.86698 54.3424C15.9644 49.4852 30.0777 44.904 30.0777 44.904C34.2799 43.181 37.7203 41.5525 38.4349 36.979C38.9914 33.4895 37.685 31.4009 36.105 30.1917Z" fill="#E90000"/>
<path d="M22.0012 0C16.1661 0 10.57 2.51294 6.444 6.98599C2.31797 11.4591 0 17.5258 0 23.8517C0 29.0285 3.39804 37.5415 7.52473 45.965C7.60255 45.5227 7.94212 43.8022 8.7368 42.6978C5.33169 35.5398 2.60571 28.4379 2.60571 24.0357C2.60571 12.2965 11.2906 2.78142 22.0012 2.78142C24.5398 2.78107 27.0534 3.32579 29.3968 4.38411C31.7402 5.44244 33.8671 6.99343 35.6546 8.94757C35.6358 8.70727 35.4943 7.03024 35.1972 6.50617C35.1571 6.44737 35.1311 6.41413 35.1311 6.41413C35.1567 6.44165 35.1788 6.47258 35.1972 6.50617C35.466 6.89986 36.4823 8.4823 36.3432 9.7324C39.6072 13.6596 41.4076 18.7623 41.3943 24.0485C41.3943 35.7852 22.0012 66.7566 22.0012 66.7566C22.0012 66.7566 15.0117 55.5849 9.43245 44.1243C8.7574 44.6985 8.1265 45.3312 7.54596 46.0161C13.9129 59.008 22.0012 71.78 22.0012 71.78C22.0012 71.78 44 37.0123 44 23.8517C44 17.5263 41.6824 11.4599 37.5568 6.9869C33.4313 2.51391 27.8358 0.000677965 22.0012 0Z" fill="#E90000"/>
</svg>
