<svg width="42" height="63" viewBox="0 0 42 63" fill="none" xmlns="http://www.w3.org/2000/svg">
<path d="M34.4639 26.4061L34.4391 26.3838C34.3198 26.3011 34.1983 26.2228 34.0767 26.149C33.9529 26.073 33.8269 26.0014 33.7008 25.9366C33.577 25.8718 33.4532 25.8114 33.3317 25.7555H33.3114C33.0616 25.6415 32.8162 25.5431 32.5776 25.4581H32.5641C31.9096 25.2224 31.2298 25.0626 30.5383 24.9819L15.4571 23.6157C13.4065 24.7873 9.0532 27.533 10.0053 29.2055C10.0053 29.2055 3.99312 28.1792 12.9135 23.3921C13.5303 23.0478 14.2056 22.6915 14.9394 22.3234H14.9529C15.7482 21.9254 16.6133 21.5169 17.5482 21.0981L18.0614 20.8745C18.3045 20.7672 18.5544 20.6509 18.8087 20.5503L19.0878 20.4295C19.4585 20.2715 19.8389 20.112 20.229 19.9511C21.1819 19.5575 22.1896 19.1566 23.252 18.7481L23.9273 18.4932C37.3653 13.3797 33.5388 5.52271 33.5388 5.52271C24.1456 10.2852 10.9102 15.003 10.9102 15.003C6.9891 16.7246 3.78604 18.3211 3.32235 22.3591C2.97345 25.362 4.19796 27.0926 5.67906 28.0898H5.69707L5.85914 28.1949L5.90191 28.2217L6.04597 28.3067L6.09098 28.3335L6.2463 28.4185L6.27556 28.4364C6.40386 28.5034 6.52991 28.566 6.65597 28.6242H6.68298L6.84279 28.6957L6.88556 28.7136L7.03412 28.7762L7.07239 28.7919L7.24121 28.8567H7.25696C7.38302 28.9037 7.50682 28.9461 7.63062 28.9842H7.65088L7.81069 29.0333H7.8377L7.99527 29.0781H8.01102C8.95866 29.3352 12.5849 29.7488 14.3969 29.9277C17.0282 30.2094 20.3889 30.5538 23.4411 30.8623C24.8254 30.31 31.1843 27.6337 30.3109 25.5923C30.3109 25.5923 36.2939 27.3273 26.4393 31.1642H26.4528C26.0927 31.3319 16.1706 35.048 15.9163 35.1284C2.21264 39.4795 5.60028 47.5288 5.60028 47.5288C15.2387 43.2806 28.7105 39.2738 28.7105 39.2738C32.7217 37.7668 36.0058 36.3425 36.6878 32.3425C37.219 29.2905 35.972 27.4637 34.4639 26.4061Z" fill="#00E90F"/>
<path d="M21.0011 0C15.4313 0 10.0896 2.19786 6.15109 6.11007C2.21261 10.0223 0 15.3284 0 20.8611C0 25.3888 3.24358 32.8344 7.1827 40.2017C7.25698 39.8149 7.58111 38.3102 8.33967 37.3442C5.08934 31.0837 2.48727 24.8723 2.48727 21.0221C2.48727 10.7547 10.7774 2.43267 21.0011 2.43267C23.4244 2.43237 25.8237 2.90879 28.0605 3.83442C30.2974 4.76005 32.3276 6.11658 34.034 7.8257C34.016 7.61552 33.8809 6.14876 33.5973 5.6904C33.559 5.63898 33.5343 5.60991 33.5343 5.60991C33.5586 5.63398 33.5798 5.66103 33.5973 5.6904C33.8539 6.03473 34.8241 7.41876 34.6912 8.51213C37.8069 11.9469 39.5254 16.4098 39.5127 21.0332C39.5127 31.2983 21.0011 58.3864 21.0011 58.3864C21.0011 58.3864 14.3294 48.6155 9.0037 38.5919C8.35934 39.0941 7.75711 39.6474 7.20296 40.2465C13.2805 51.6094 21.0011 62.78 21.0011 62.78C21.0011 62.78 42 32.3716 42 20.8611C42 15.3288 39.7877 10.023 35.8497 6.11086C31.9117 2.19871 26.5706 0.00059296 21.0011 0Z" fill="#00E90F"/>
</svg>
