<svg width="44" height="65" viewBox="0 0 44 65" fill="none" xmlns="http://www.w3.org/2000/svg">
<path d="M36.1051 27.2474L36.0791 27.2243C35.9542 27.139 35.8268 27.0582 35.6995 26.9821C35.5698 26.9036 35.4377 26.8298 35.3057 26.7629C35.176 26.696 35.0463 26.6337 34.9189 26.576H34.8977C34.636 26.4584 34.3789 26.3568 34.129 26.2692H34.1148C33.4291 26.0259 32.7169 25.861 31.9925 25.7777L16.1932 24.3681C14.0449 25.577 9.48435 28.4102 10.4818 30.1359C10.4818 30.1359 4.18331 29.077 13.5285 24.1374C14.1746 23.7821 14.8821 23.4145 15.6508 23.0346H15.665C16.4982 22.6239 17.4045 22.2024 18.3839 21.7702L18.9215 21.5395C19.1762 21.4288 19.4379 21.3088 19.7044 21.205L19.9968 21.0804C20.3851 20.9174 20.7836 20.7528 21.1924 20.5867C22.1906 20.1806 23.2463 19.7669 24.3593 19.3454L25.0667 19.0824C39.1447 13.806 35.1359 5.69867 35.1359 5.69867C25.2955 10.6129 11.4298 15.481 11.4298 15.481C7.32196 17.2575 3.96637 18.9048 3.4806 23.0715C3.11509 26.17 4.3979 27.9557 5.94954 28.9847H5.9684L6.13819 29.0931L6.18299 29.1208L6.33391 29.2085L6.38107 29.2362L6.54378 29.3238L6.57444 29.3423C6.70885 29.4115 6.84091 29.4761 6.97296 29.5361H7.00126L7.16868 29.6099L7.21349 29.6284L7.36912 29.693L7.40921 29.7091L7.58607 29.776H7.60258C7.73463 29.8245 7.86433 29.8683 7.99402 29.9075H8.01525L8.18267 29.9583H8.21097L8.37604 30.0044H8.39254C9.38531 30.2698 13.1842 30.6966 15.0825 30.8812C17.8391 31.1719 21.3598 31.5271 24.5574 31.8455C26.0076 31.2757 32.6693 28.514 31.7544 26.4076C31.7544 26.4076 38.0222 28.1979 27.6984 32.157H27.7125C27.3353 32.33 16.9407 36.1645 16.6742 36.2476C2.31805 40.7373 5.86701 49.043 5.86701 49.043C15.9644 44.6594 30.0777 40.525 30.0777 40.525C34.2799 38.97 37.7204 37.5003 38.4349 33.3729C38.9914 30.2236 37.685 28.3387 36.1051 27.2474Z" fill="#FFEB00"/>
<path d="M22.0012 0C16.1661 0 10.57 2.26787 6.444 6.30472C2.31797 10.3416 0 15.8167 0 21.5257C0 26.1976 3.39804 33.8804 7.52473 41.4825C7.60255 41.0833 7.94212 39.5306 8.7368 38.5339C5.33169 32.0739 2.60571 25.6647 2.60571 21.6918C2.60571 11.0974 11.2906 2.51017 22.0012 2.51017C24.5398 2.50986 27.0534 3.00145 29.3968 3.95658C31.7402 4.9117 33.8671 6.31143 35.6546 8.07501C35.6358 7.85813 35.4943 6.34465 35.1972 5.87168C35.1571 5.81862 35.1311 5.78863 35.1311 5.78863C35.1567 5.81346 35.1788 5.84137 35.1972 5.87168C35.466 6.22698 36.4823 7.65511 36.3432 8.7833C39.6072 12.3275 41.4076 16.9326 41.3943 21.7033C41.3943 32.2954 22.0012 60.2465 22.0012 60.2465C22.0012 60.2465 15.0117 50.1642 9.43245 39.8213C8.7574 40.3395 8.1265 40.9105 7.54596 41.5286C13.9129 53.2535 22.0012 64.78 22.0012 64.78C22.0012 64.78 44 33.4028 44 21.5257C44 15.8171 41.6824 10.3423 37.5568 6.30553C33.4313 2.26876 27.8358 0.00061185 22.0012 0Z" fill="#FFEB00"/>
</svg>
